<svg version="1.2" xmlns="http://www.w3.org/2000/svg" viewBox="0 0 1280 1024" width="32" height="32"><style>.a{fill:none}.b{fill:#ef2a54}</style><path class="a" d="m456.5-354.4v-65.2h81.5v65.2z"/><path class="b" d=""/><path class="b" d=""/><path class="b" d="m825.9 664l-207 207-206.9-207 58.5-30.9 148.4 96.3 148.6-96.3z"/><path class="b" d="m819.9 366.7c52.6-48.6 188-31.3 166.4 87q0 0.2 0 0.4c-8.4 39.7-28 77.5-59 108.5l-68.2 68.3c73.2-76.7-15.4-173-15.4-173l-127.8 49.6 8.9 87.2-105.9 66.3-105.8-66.3 8.9-87.2-127.9-49.6c0 0-90.3 98.1-13.1 175.2l-70.5-70.5c-30.9-31-50.5-68.8-59-108.5q0-0.2 0-0.4c-21.5-118.3 113.8-135.6 166.4-87-2 52.5 161.5 106 161.5 106l-12.8 99.1 52.3 29.8 52.4-29.8-12.9-99.1c0 0 163.6-53.5 161.5-106z"/><path class="b" d="m925.7 254.1c22.8 22.9 39.5 49.4 50.1 77.8-88.2-76.2-265.2-25.7-358.5 83.4-93.4-109.1-270.3-159.6-358.5-83.4 10.6-28.4 27.2-54.9 50.1-77.8 85.1-85.1 223.2-85.1 308.4 0 85.1-85.1 223.2-85.1 308.4 0z"/></svg>